<svg width="475" height="168" viewBox="0 0 475 168" fill="none" xmlns="http://www.w3.org/2000/svg">
<g clip-path="url(#clip0_1_16)">
<path d="M203.1 43.9V54.4H249.3V63.8H203.2V90H215.8V74.2H261.9V43.9H203.1ZM203.2 84.2V95H263.3V84.2H203.2Z" fill="#28D4AB"/>
<path d="M46 43.6C29.8 43.6 16.5 54.7 16.5 69.8C16.5 85 29.8 96.1 46 96.1C62.3 96.1 75.5 85 75.5 69.8C75.5 54.7 62.3 43.6 46 43.6ZM46 54.9C55.4 54.9 62.8 60.7 62.8 69.8C62.8 79 55.4 84.9 46 84.9C36.6 84.9 29.2 79 29.2 69.8C29.2 60.7 36.6 54.9 46 54.9Z" fill="#28D4AB"/>
<path d="M111.6 45.2V55.8H157.1V95H170.3V45.2H111.6Z" fill="#28D4AB"/>
<path d="M330 43.6C313.8 43.6 300.5 54.7 300.5 69.8C300.5 85 313.8 96.1 330 96.1C346.3 96.1 359.5 85 359.5 69.8C359.5 54.7 346.3 43.6 330 43.6ZM330 54.9C339.4 54.9 346.8 60.7 346.8 69.8C346.8 79 339.4 84.9 330 84.9C320.6 84.9 313.2 79 313.2 69.8C313.2 60.7 320.6 54.9 330 54.9Z" fill="#28D5AB"/>
<path d="M351.87 147C351.45 147 351.2 146.97 351.12 146.91C351.06 146.83 351.03 146.58 351.03 146.16V125.49C351.03 125.11 351.06 124.89 351.12 124.83C351.2 124.75 351.43 124.71 351.81 124.71H362.22C362.5 124.71 362.64 124.85 362.64 125.13V126.18C362.64 126.46 362.5 126.6 362.22 126.6H353.22V134.52H361.77C362.05 134.52 362.19 134.66 362.19 134.94V136.02C362.19 136.3 362.05 136.44 361.77 136.44H353.22V145.08H362.58C362.86 145.08 363 145.22 363 145.5V146.58C363 146.86 362.86 147 362.58 147H351.87ZM385.205 134.97C385.625 134.97 385.865 135.01 385.925 135.09C386.005 135.15 386.045 135.39 386.045 135.81V145.32C386.045 145.54 385.975 145.73 385.835 145.89C385.715 146.05 385.575 146.17 385.415 146.25C384.455 146.61 383.445 146.88 382.385 147.06C381.345 147.26 380.255 147.36 379.115 147.36C377.455 147.36 375.915 147.11 374.495 146.61C373.095 146.09 371.885 145.35 370.865 144.39C369.845 143.41 369.045 142.21 368.465 140.79C367.905 139.35 367.625 137.71 367.625 135.87C367.625 134.19 367.885 132.65 368.405 131.25C368.945 129.85 369.705 128.64 370.685 127.62C371.685 126.6 372.895 125.81 374.315 125.25C375.735 124.67 377.335 124.38 379.115 124.38C380.235 124.38 381.205 124.43 382.025 124.53C382.865 124.63 383.755 124.83 384.695 125.13C384.995 125.21 385.115 125.41 385.055 125.73L384.905 126.84C384.885 127.1 384.735 127.19 384.455 127.11C383.555 126.77 382.695 126.55 381.875 126.45C381.055 126.33 380.135 126.27 379.115 126.27C377.695 126.27 376.405 126.51 375.245 126.99C374.105 127.45 373.125 128.1 372.305 128.94C371.505 129.78 370.885 130.79 370.445 131.97C370.025 133.15 369.815 134.45 369.815 135.87C369.815 137.41 370.045 138.78 370.505 139.98C370.965 141.18 371.605 142.19 372.425 143.01C373.265 143.81 374.245 144.42 375.365 144.84C376.505 145.26 377.755 145.47 379.115 145.47C381.335 145.47 382.915 145.2 383.855 144.66V136.86H377.825C377.545 136.86 377.405 136.72 377.405 136.44V135.39C377.405 135.11 377.545 134.97 377.825 134.97H385.205ZM402.841 145.08C403.121 145.08 403.261 145.22 403.261 145.5V146.55C403.261 146.83 403.121 146.97 402.841 146.97H393.121C392.841 146.97 392.621 146.97 392.461 146.97C392.321 146.95 392.211 146.91 392.131 146.85C392.071 146.77 392.031 146.65 392.011 146.49C392.011 146.33 392.011 146.11 392.011 145.83V125.19C392.011 124.91 392.151 124.77 392.431 124.77H393.811C394.091 124.77 394.231 124.91 394.231 125.19V145.08H402.841ZM408.643 147.87C408.643 148.15 408.503 148.29 408.223 148.29H406.903C406.623 148.29 406.483 148.15 406.483 147.87V132.48C406.483 132.2 406.623 132.06 406.903 132.06H408.223C408.503 132.06 408.643 132.2 408.643 132.48V147.87ZM406.093 126.39C406.093 125.99 406.233 125.65 406.513 125.37C406.793 125.07 407.133 124.92 407.533 124.92C407.933 124.92 408.273 125.07 408.553 125.37C408.853 125.65 409.003 125.99 409.003 126.39C409.003 126.79 408.853 127.13 408.553 127.41C408.273 127.69 407.933 127.83 407.533 127.83C407.133 127.83 406.793 127.69 406.513 127.41C406.233 127.13 406.093 126.79 406.093 126.39ZM426.618 146.55C426.618 146.83 426.478 146.97 426.198 146.97H424.998C424.718 146.97 424.578 146.83 424.578 146.55V137.1C424.578 135.26 424.248 133.96 423.588 133.2C422.928 132.42 421.998 132.03 420.798 132.03C419.178 132.03 417.938 132.48 417.078 133.38C416.238 134.28 415.818 135.54 415.818 137.16V146.55C415.818 146.83 415.678 146.97 415.398 146.97H414.198C413.918 146.97 413.778 146.83 413.778 146.55V134.55C413.778 133.69 413.768 133.02 413.748 132.54C413.748 132.06 413.728 131.6 413.688 131.16C413.668 131.02 413.698 130.92 413.778 130.86C413.878 130.78 413.988 130.74 414.108 130.74H415.188C415.468 130.74 415.608 130.88 415.608 131.16V132.81C416.168 131.95 416.838 131.32 417.618 130.92C418.418 130.52 419.508 130.32 420.888 130.32C422.788 130.32 424.218 130.87 425.178 131.97C426.138 133.07 426.618 134.62 426.618 136.62V146.55ZM441.992 137.73C441.992 136.91 441.912 136.18 441.752 135.54C441.592 134.9 441.342 134.32 441.002 133.8C440.262 132.62 439.192 132.03 437.792 132.03C436.352 132.03 435.182 132.63 434.282 133.83C433.922 134.37 433.622 134.99 433.382 135.69C433.142 136.39 433.012 137.07 432.992 137.73H441.992ZM432.992 139.44C432.972 140.44 433.082 141.33 433.322 142.11C433.582 142.87 433.952 143.51 434.432 144.03C434.912 144.55 435.482 144.95 436.142 145.23C436.822 145.51 437.572 145.65 438.392 145.65C439.192 145.65 439.942 145.58 440.642 145.44C441.342 145.28 441.992 145.03 442.592 144.69C442.852 144.57 442.982 144.64 442.982 144.9V146.25C442.982 146.43 442.872 146.57 442.652 146.67C441.992 146.93 441.302 147.12 440.582 147.24C439.862 147.38 439.082 147.45 438.242 147.45C435.782 147.45 433.922 146.74 432.662 145.32C431.402 143.88 430.772 141.72 430.772 138.84C430.772 136.3 431.402 134.25 432.662 132.69C433.982 131.11 435.652 130.32 437.672 130.32C438.792 130.32 439.762 130.52 440.582 130.92C441.402 131.32 442.102 131.92 442.682 132.72C443.702 134.14 444.212 136.04 444.212 138.42C444.212 138.68 444.202 138.88 444.182 139.02C444.182 139.16 444.152 139.26 444.092 139.32C444.032 139.38 443.922 139.42 443.762 139.44C443.622 139.44 443.412 139.44 443.132 139.44H432.992Z" fill="black"/>
<rect x="341" y="101" width="8" height="48" fill="#E9E9E9"/>
<rect x="87" y="111" width="100" height="7" fill="#E9E9E9"/>
<rect x="341" y="149" width="123" height="7" fill="#E9E9E9"/>
<rect x="87" y="29" width="8" height="87" fill="#E9E9E9"/>
<rect x="368" y="29" width="8" height="87" fill="#E9E9E9"/>
<rect x="275" y="76" width="8" height="18" transform="rotate(-90 275 76)" fill="#E9E9E9"/>
<rect x="275" y="29" width="8" height="87" fill="#E9E9E9"/>
</g>
<defs>
<clipPath id="clip0_1_16">
<rect width="475" height="168" fill="white"/>
</clipPath>
</defs>
</svg>
